<?xml version="1.0" encoding="utf-8"?>
<!-- Svg Vector Icons : http://www.onlinewebfonts.com/icon -->
<!DOCTYPE svg PUBLIC "-//W3C//DTD SVG 1.1//EN" "http://www.w3.org/Graphics/SVG/1.1/DTD/svg11.dtd">
<svg version="1.1" xmlns="http://www.w3.org/2000/svg" xmlns:xlink="http://www.w3.org/1999/xlink" x="0px" y="0px" viewBox="0 0 256 256" enable-background="new 0 0 256 256" xml:space="preserve">
<metadata> Svg Vector Icons : http://www.onlinewebfonts.com/icon </metadata>
<g><g><path fill="#000000" d="M100.2,116.4c3.7,3.7,7.9,6.5,12.7,8.5c4.9,2.1,10.1,3.1,15.5,3.1c5.4,0,10.6-1.1,15.5-3.1c4.7-2,9-4.9,12.7-8.5c3.7-3.7,6.5-7.9,8.6-12.7c2.1-4.9,3.1-10.1,3.1-15.5c0-5.4-1.1-10.6-3.1-15.5c-2-4.7-4.9-9-8.6-12.7c-3.7-3.7-7.9-6.5-12.7-8.5c-4.9-2.1-10.1-3.1-15.5-3.1c-5.4,0-10.6,1.1-15.5,3.1c-4.7,2-9,4.9-12.7,8.5c-3.7,3.7-6.5,7.9-8.5,12.7c-2.1,4.9-3.1,10.1-3.1,15.5c0,5.4,1.1,10.6,3.1,15.5C93.6,108.5,96.5,112.8,100.2,116.4z"/><path fill="#000000" d="M183.9,133.6c-5.1-5.1-10.7-9.3-16.8-12.8c-0.9,1.1-1.9,2.2-2.9,3.2c-4.6,4.6-10.1,8.3-16.1,10.8c-6.2,2.6-12.9,4-19.7,4c-6.8,0-13.5-1.3-19.7-4c-6-2.6-11.4-6.2-16.1-10.8c-1-1-2-2.1-2.9-3.2c-6.1,3.5-11.8,7.8-16.8,12.8c-7.2,7.2-12.9,15.6-16.8,25c-4.1,9.7-6.2,20-6.2,30.6c0,6.3,0.7,12.5,2.2,18.5h152.7c1.4-6,2.2-12.2,2.2-18.5c0-10.6-2.1-20.9-6.2-30.6C196.8,149.2,191.1,140.8,183.9,133.6z"/><path fill="#000000" d="M241,150.6c-3.2-7.6-7.8-14.4-13.6-20.2c-4.1-4.1-8.6-7.6-13.6-10.4c-0.7,0.9-1.5,1.8-2.4,2.6c-3.8,3.8-8.1,6.7-13,8.8c-1.7,0.7-3.5,1.3-5.2,1.8c10.8,10.3,20.5,27.7,21.4,57.2h29.7c1.2-4.9,1.8-9.9,1.8-15C246,166.8,244.3,158.5,241,150.6z"/><path fill="#000000" d="M185.2,125.8c3.3-0.3,6.6-1.1,9.7-2.4c3.9-1.6,7.3-3.9,10.3-6.9c3-3,5.3-6.4,6.9-10.3c1.7-4,2.5-8.2,2.5-12.6c0-4.4-0.8-8.6-2.5-12.6c-1.6-3.9-3.9-7.3-6.9-10.3c-3-3-6.4-5.3-10.3-6.9c-4-1.7-8.2-2.6-12.6-2.6c-3.9,0-7.5,0.3-11.5,2c-0.8,0.3-1.6,0.7-2.4,1.1c4.6,6.9,12.9,27.2-0.2,49C175.8,117.2,180.9,122.1,185.2,125.8z"/><path fill="#000000" d="M15,151.7c3.2-7.6,7.8-14.4,13.6-20.2c4.1-4.1,8.6-7.6,13.6-10.4c0.7,0.9,1.5,1.8,2.4,2.6c3.8,3.8,8.1,6.7,13,8.8c1.7,0.7,3.5,1.3,5.2,1.8C52,144.5,42.4,162,41.5,191.5H11.8c-1.2-4.9-1.8-9.9-1.8-15C10,167.9,11.7,159.5,15,151.7z"/><path fill="#000000" d="M70.8,126.9c-3.3-0.3-6.6-1.1-9.7-2.4c-3.9-1.6-7.3-3.9-10.3-6.9c-3-3-5.3-6.4-6.9-10.3c-1.7-4-2.6-8.2-2.6-12.6c0-4.4,0.9-8.6,2.6-12.6c1.6-3.9,3.9-7.3,6.9-10.3c3-3,6.4-5.3,10.3-6.9c4-1.7,8.2-2.6,12.6-2.6c3.9,0,7.5,0.3,11.5,2c0.8,0.3,1.6,0.7,2.4,1.1c-4.6,6.9-12.9,27.2,0.2,49C80.2,118.3,75.1,123.2,70.8,126.9z"/></g></g>
</svg>